<svg width="37" height="35" viewBox="0 0 37 35" fill="none" xmlns="http://www.w3.org/2000/svg">
<path d="M2.7826 15.4846C-1.59596 19.0523 3.08226 26.257 6.22869 29.0662C9.37513 31.8755 14.2308 34.9382 16.9724 33.7286C21.3377 31.8028 16.6853 26.9667 20.663 23.2983C21.9074 22.1506 24.578 19.0409 26.1362 18.7366C29.6566 18.0492 33.4937 18.7004 35.461 17.0142C38.2989 14.5817 34.1247 9.31613 31.3649 5.95715C27.9281 1.77419 24.3109 0.642338 21.8375 1.09205C17.3778 1.9029 14.9453 7.17341 13.729 10.6195C12.5127 14.0656 8.25582 11.0249 2.7826 15.4846Z" fill="#D9D9D9" stroke="black"/>
<rect x="6.13361" y="19.8312" width="2.83796" height="7.50358" rx="1.41898" transform="rotate(-37.1376 6.13361 19.8312)" fill="#06050A"/>
<rect x="11.2098" y="18.5577" width="2.83796" height="7.06399" rx="1.41898" transform="rotate(50.21 11.2098 18.5577)" fill="#06050A"/>
<rect x="24.1518" y="5.0542" width="2.83796" height="2.69363" rx="1.34681" transform="rotate(50.21 24.1518 5.0542)" fill="#06050A"/>
<rect x="27.8006" y="5.0542" width="2.83796" height="2.69363" rx="1.34681" transform="rotate(50.21 27.8006 5.0542)" fill="#06050A"/>
<rect x="23.3409" y="8.703" width="2.83796" height="2.69363" rx="1.34681" transform="rotate(50.21 23.3409 8.703)" fill="#06050A"/>
<rect x="26.9897" y="8.703" width="2.83796" height="2.69363" rx="1.34681" transform="rotate(50.21 26.9897 8.703)" fill="#06050A"/>
</svg>
