<svg width="89" height="83" viewBox="0 0 89 83" fill="none" xmlns="http://www.w3.org/2000/svg">
<path d="M5.3969 36.7271C-5.4031 45.5271 6.13601 63.2979 13.8969 70.2271C21.6578 77.1562 33.6345 84.7105 40.3969 81.7271C51.1642 76.9768 39.6888 65.0483 49.5 56C52.5694 53.1693 59.1566 45.4989 63 44.7484C71.6831 43.0528 81.1478 44.6591 86 40.5C93 34.5 82.7041 21.5122 75.8969 13.2271C67.4198 2.90958 58.4978 0.117805 52.3969 1.22706C41.3969 3.22706 35.3969 16.2271 32.3969 24.7271C29.3969 33.2271 18.8969 25.7271 5.3969 36.7271Z" fill="#D9D9D9" stroke="black"/>
<rect x="13.6624" y="47.4482" width="7" height="18.508" rx="3.5" transform="rotate(-37.1376 13.6624 47.4482)" fill="#06050A"/>
<rect x="26.1832" y="44.3071" width="7" height="17.4238" rx="3.5" transform="rotate(50.21 26.1832 44.3071)" fill="#06050A"/>
<rect x="58.1052" y="11" width="7" height="6.644" rx="3.322" transform="rotate(50.21 58.1052 11)" fill="#06050A"/>
<rect x="67.1052" y="11" width="7" height="6.644" rx="3.322" transform="rotate(50.21 67.1052 11)" fill="#06050A"/>
<rect x="56.1052" y="20" width="7" height="6.644" rx="3.322" transform="rotate(50.21 56.1052 20)" fill="#06050A"/>
<rect x="65.1052" y="20" width="7" height="6.644" rx="3.322" transform="rotate(50.21 65.1052 20)" fill="#06050A"/>
</svg>
