<svg width="115" height="117" viewBox="0 0 115 117" fill="none" xmlns="http://www.w3.org/2000/svg">
<path d="M45.8398 44.5992C47.4079 43.9984 49.1725 44.2909 50.5114 45.3736L86.6924 74.6299C89.7347 77.0899 89.0839 82.0583 85.5354 83.4632L49.6383 97.6755C47.7507 98.4229 45.6142 98.0849 43.9914 96.7824L7.67205 67.6296C4.5966 65.161 5.27103 60.1424 8.86319 58.7662L45.8398 44.5992Z" fill="#B3B3B3"/>
<path d="M41.8885 45.2083C44.9906 44.0782 48.4506 44.6803 51.0846 46.8086L91.0932 79.1356L51.0092 94.7223C47.8768 95.9404 44.3432 95.3716 41.6553 93.2166L7.78743 66.0637C4.68185 63.5739 5.40136 58.5001 9.04843 57.1716L41.8885 45.2083Z" fill="#D9D9D9"/>
<path d="M56.2039 6.30305C57.2499 3.11495 60.7833 1.98534 63.3536 4.0173L105.156 37.0641C107.045 38.5574 107.748 41.2861 106.83 43.5576L93.369 76.8395C92.1781 79.784 88.8199 80.7249 86.3628 78.8024L43.4366 45.2155L56.2039 6.30305Z" fill="#D9D9D9"/>
<path d="M58.2155 13.2495C59.2485 10.0431 62.7942 8.89707 65.3737 10.9358L100.35 38.5793C102.233 40.0676 102.939 42.7847 102.031 45.0535L91.3647 71.7321C90.1819 74.6904 86.8144 75.6422 84.3507 73.7146L50.9578 47.5869C49.1673 46.186 48.417 43.662 49.1317 41.4438L58.2155 13.2495Z" fill="#06050A"/>
<path d="M41.1771 50.1719C44.1986 49.0944 47.5542 49.653 50.1529 51.6662L79.1427 74.1245C81.0496 75.6017 80.6329 78.6929 78.4191 79.4932L50.4943 89.5882C47.4104 90.7031 43.9756 90.1085 41.3513 88.0055L13.0009 65.2868C11.1301 63.7877 11.5731 60.7299 13.7747 59.9447L41.1771 50.1719Z" fill="#CACACA"/>
<path d="M64 19L79.9965 31.2319" stroke="#D9D9D9" stroke-width="4" stroke-linecap="round"/>
<path d="M62.2994 24.8697L71.7388 32.4211" stroke="#D9D9D9" stroke-width="4" stroke-linecap="round"/>
<path d="M75.5145 34.9383L80.5488 38.714" stroke="#D9D9D9" stroke-width="4" stroke-linecap="round"/>
<path d="M59.7332 32.8533L80.4997 48.5855" stroke="#D9D9D9" stroke-width="4" stroke-linecap="round"/>
<path d="M58.2399 38.8266L69.5671 47.6366" stroke="#D9D9D9" stroke-width="4" stroke-linecap="round"/>
</svg>
