<?xml version="1.0" encoding="UTF-8" standalone="no"?>
<!-- Created with Inkscape (http://www.inkscape.org/) -->

<svg
   width="200mm"
   height="200mm"
   viewBox="0 0 200 200"
   version="1.1"
   id="svg1"
   inkscape:version="1.4.2 (ebf0e940, 2025-05-08)"
   sodipodi:docname="vgdcSEAL1.svg"
   xml:space="preserve"
   inkscape:export-filename="approvalSEAL.svg"
   inkscape:export-xdpi="96"
   inkscape:export-ydpi="96"
   xmlns:inkscape="http://www.inkscape.org/namespaces/inkscape"
   xmlns:sodipodi="http://sodipodi.sourceforge.net/DTD/sodipodi-0.dtd"
   xmlns:xlink="http://www.w3.org/1999/xlink"
   xmlns="http://www.w3.org/2000/svg"
   xmlns:svg="http://www.w3.org/2000/svg"><sodipodi:namedview
     id="namedview1"
     pagecolor="#ffffff"
     bordercolor="#000000"
     borderopacity="0.25"
     inkscape:showpageshadow="2"
     inkscape:pageopacity="0.0"
     inkscape:pagecheckerboard="0"
     inkscape:deskcolor="#d1d1d1"
     inkscape:document-units="mm"
     inkscape:zoom="0.53332754"
     inkscape:cx="195.93963"
     inkscape:cy="299.06575"
     inkscape:window-width="1728"
     inkscape:window-height="966"
     inkscape:window-x="0"
     inkscape:window-y="576"
     inkscape:window-maximized="1"
     inkscape:current-layer="svg1"
     showguides="true" /><defs
     id="defs1"><rect
       x="-11.060882"
       y="799.14874"
       width="492.20926"
       height="74.660954"
       id="rect1" /><inkscape:path-effect
       effect="fill_between_many"
       id="path-effect50"
       is_visible="true"
       lpeversion="1.2"
       linkedpaths=""
       method="bsplinespiro"
       join="true"
       close="true"
       autoreverse="true" /><inkscape:path-effect
       effect="bspline"
       id="path-effect10"
       is_visible="true"
       lpeversion="1.3"
       weight="33.333333"
       steps="2"
       helper_size="0"
       apply_no_weight="true"
       apply_with_weight="true"
       only_selected="false"
       uniform="false" /><inkscape:path-effect
       effect="bspline"
       id="path-effect7"
       is_visible="true"
       lpeversion="1.3"
       weight="33.333333"
       steps="2"
       helper_size="0"
       apply_no_weight="true"
       apply_with_weight="true"
       only_selected="false"
       uniform="false" /><inkscape:path-effect
       effect="spiro"
       id="path-effect5"
       is_visible="true"
       lpeversion="1" /><inkscape:path-effect
       effect="bspline"
       id="path-effect4"
       is_visible="true"
       lpeversion="1.3"
       weight="33.333333"
       steps="2"
       helper_size="0"
       apply_no_weight="true"
       apply_with_weight="true"
       only_selected="false"
       uniform="false" /><inkscape:path-effect
       effect="bspline"
       id="path-effect3"
       is_visible="true"
       lpeversion="1.3"
       weight="33.333333"
       steps="2"
       helper_size="0"
       apply_no_weight="true"
       apply_with_weight="true"
       only_selected="false"
       uniform="false" /></defs><g
     inkscape:label="Layer 1"
     inkscape:groupmode="layer"
     id="layer1"
     style="display:inline"><path
       d="M 100.13987,3.8270112 A 95.685195,96.556275 0 1 0 195.82508,100.38328 95.685195,96.556275 0 0 0 100.13987,3.8270112 Z"
       style="display:inline;fill:#bfc4d2;fill-opacity:0.261062;stroke:none;stroke-width:5.94837;stroke-dasharray:none;stroke-opacity:1"
       id="circle_sticker" /><path
       id="spike_sticker"
       style="display:none;fill:#cecece;fill-opacity:0.353982;stroke:none;stroke-width:1.0254;stroke-dasharray:none;stroke-opacity:1"
       d="M 89.905761,1.0422806 82.596965,17.042265 c -0.06267,0.0078 -0.125771,0.01388 -0.18843,0.0217 L 69.332071,5.4566799 65.700512,22.700871 c -0.0088,0.0037 -0.018,0.0066 -0.02684,0.01023 l -15.451248,-8.611816 0.172442,17.412636 c -0.06043,0.03611 -0.121138,0.07241 -0.181578,0.108491 l -16.837068,-5.069336 3.973016,17.025499 0.38828,-0.354021 c -0.175107,0.183651 -0.354677,0.362924 -0.527605,0.548731 l 0.139325,-0.19471 -17.484011,-1.787801 7.146062,16.17014 c -0.006,0.01151 -0.01121,0.02332 -0.01713,0.03483 L 9.461612,60.052768 19.829825,74.147325 c -0.0093,0.03529 -0.01706,0.07092 -0.02626,0.106206 L 3.2040223,79.481082 16.093771,91.356735 c -0.02108,0.09678 -0.03872,0.194466 -0.05995,0.291209 l -15.0167275,8.677486 15.1075105,8.82766 c 0.0026,0.071 1.78e-4,0.14254 0.0029,0.21355 l -12.9479904,11.75745 16.7245824,5.45762 -0.09821,-0.46765 c 0.06595,0.22506 0.121254,0.45291 0.190142,0.67721 l -0.09193,-0.20956 -10.3116837,14.45828 17.3578207,1.70901 c 0.0095,0.0153 0.02024,0.0297 0.02969,0.0451 l -7.289383,15.94004 17.646747,-1.57368 -0.161022,-0.22384 c 0.156962,0.17186 0.31646,0.34133 0.475643,0.51106 l -0.314621,-0.28722 -3.667531,17.31042 16.686895,-5.324 c 0.02514,0.0188 0.04958,0.0385 0.0748,0.0571 l -0.335747,17.40351 15.482086,-8.50734 c 0.04268,0.0199 0.08338,0.0443 0.126192,0.064 l 3.509935,17.10829 13.195803,-11.59301 c 0.0153,0.004 0.03037,0.01 0.04568,0.0143 0.03917,0.004 0.07845,0.009 0.117625,0.0137 l 7.134071,15.99313 10.394482,-14.17678 c 0.0309,0.002 0.0616,0.005 0.0925,0.006 l 10.50468,14.16195 7.01987,-15.96687 c 0.0612,-0.007 0.12273,-0.0133 0.18386,-0.0211 l 12.7727,11.7032 3.88279,-17.35268 -0.73144,0.24096 c 0.35172,-0.14585 0.70857,-0.27862 1.05749,-0.43167 l -0.32605,0.19071 15.34048,8.70488 -0.0314,-17.61819 c 0.0125,-0.01 0.024,-0.0206 0.0366,-0.0303 l 16.90729,5.1824 -3.74232,-16.67548 c 0.25858,0.002 0.36747,-0.17727 0.44652,-0.4054 l 16.82109,1.88259 -7.03415,-16.17186 c 0.0312,-0.0474 0.0648,-0.0935 0.0959,-0.14104 l 17.3287,-1.85004 -10.27514,-14.25672 c 0.0201,-0.0506 0.0439,-0.10008 0.0639,-0.15075 l 16.61611,-5.54269 -13.00168,-11.6598 c 0.0109,-0.0621 0.024,-0.12401 0.0348,-0.18616 l 15.10523,-8.44052 -15.07667,-9.086888 c -0.003,-0.09046 -0.002,-0.181355 -0.006,-0.271796 l 12.88187,-11.80845 -16.57213,-5.287458 c -0.0141,-0.05705 -0.0241,-0.115409 -0.0383,-0.172443 l 10.31283,-14.093414 -17.37153,-1.947108 c -0.0262,-0.05436 -0.0508,-0.109571 -0.0771,-0.163877 l 7.30024,-15.764161 -17.51199,1.517147 c -0.038,-0.04936 -0.0744,-0.100312 -0.11248,-0.149602 l 3.39515,-17.376092 -16.5076,5.538126 c -0.0172,-0.01126 -0.0348,-0.02186 -0.0519,-0.03312 l -0.0697,-17.655881 -15.03955,8.696896 c -0.0679,-0.03867 -0.13597,-0.0778 -0.20386,-0.116484 L 130.99833,5.4886546 117.87219,17.103932 c -0.0533,-0.01549 -0.10605,-0.03312 -0.1593,-0.04854 L 110.86888,1.1010937 100.24428,15.215065 c -0.0408,-0.0027 -0.0814,-0.0071 -0.12219,-0.0097 z" /><path
       d="M 100.13991,24.466856 A 75.231218,75.916091 0 1 0 175.37114,100.38295 75.231218,75.916091 0 0 0 100.13991,24.466856 Z"
       style="display:inline;fill:none;stroke:#debb18;stroke-width:4.67682;stroke-dasharray:none;stroke-opacity:1"
       id="path1" /><path
       id="path1-5-9"
       style="color:#000000;display:inline;fill:#debb18;stroke-width:0.784609;-inkscape-stroke:none"
       d="m 121.24103,133.63048 c -2.65408,-10.10946 -6.15326,-16.78384 -6.80061,-18.21495 -8.6392,1.84489 -18.818848,2.02555 -27.009079,1.03439 -0.353226,1.69416 -3.91527,8.06781 -6.022254,18.36628 6.176539,3.41103 12.260888,6.03501 19.331843,5.74599 7.07096,-0.28903 14.4061,-2.49758 20.5001,-6.93171 z M 94.695133,56.750938 c -0.386248,1.627195 0.819706,5.788948 0.926754,7.779331 L 91.93809,62.250031 c -0.149045,1.008787 -0.278715,2.410486 -0.180733,4.190502 l 0.05115,0.917851 -0.91419,0.09718 c -6.976779,0.744823 -12.446427,4.447013 -16.04777,10.004525 -3.60133,5.557512 -5.295502,12.988968 -4.518311,21.08628 0.243677,2.538631 1.111172,4.786611 2.328159,6.749401 -0.663147,-2.21397 -0.819637,-4.2309 -0.441264,-5.743143 0.405488,-1.620854 1.552906,-2.626039 2.520287,-3.467873 0.967399,-0.841835 1.757042,-1.543585 2.054186,-2.443524 0.297193,-0.899925 0.187709,-2.44046 0.0054,-4.174846 -0.182289,-1.734383 -0.405302,-3.668126 0.0011,-5.540281 0.81279,-3.744313 4.161346,-6.642061 8.410761,-6.635196 4.249494,0.0068 8.812067,2.574527 13.818536,2.432276 5.006549,-0.14225 10.922299,-3.006275 15.882359,-3.357179 4.96009,-0.35091 8.79232,2.179735 9.69987,6.157117 0.45378,1.988692 0.20152,4.142413 0.004,6.080573 -0.19816,1.93818 -0.29161,3.674708 0.0367,4.518179 0.32835,0.843481 1.18513,1.368113 2.29149,2.031204 1.10645,0.6631 2.48577,1.519953 2.90237,3.219604 0.4164,1.698559 0.0222,4.125899 -1.0965,6.839639 -0.18478,0.44817 -0.39811,0.90212 -0.62784,1.35814 2.29996,-2.8706 3.71942,-6.754648 3.56686,-11.725431 -0.50308,-9.382573 -2.91863,-16.352347 -7.28859,-21.231389 -4.37118,-4.880432 -10.75663,-7.755412 -19.47883,-8.760962 l -0.14097,-0.01644 -0.13174,-0.05777 C 99.674025,62.626637 96.200818,58.604063 94.695154,56.750937 Z M 60.583261,77.89443 c -7.373699,0.521662 -9.876815,8.890118 -9.165856,16.335403 0.629425,6.591517 9.330749,14.181727 20.806103,13.824377 -1.273478,-1.63559 -2.348598,-3.5006 -3.040898,-5.60308 -2.150053,-0.14517 -5.041278,-0.93873 -6.47858,-2.05448 -0.885853,-0.687659 -1.644889,-1.443434 -2.187797,-2.220234 -0.542899,-0.776802 -0.996351,-1.649187 -0.702856,-2.655348 0.249704,-0.856098 0.80701,-1.336036 1.41673,-1.859039 0.609717,-0.523008 1.320745,-1.037218 1.995564,-1.582933 0.674826,-0.545717 1.308957,-1.123488 1.745825,-1.700213 0.436869,-0.576717 0.660797,-1.111522 0.672674,-1.649493 0.01234,-0.561246 -0.08123,-1.124798 -0.221622,-1.67321 -2.557511,0.685185 -5.877006,1.902098 -8.140643,5.971827 l -1.41963,-1.066138 c 2.50122,-4.496992 6.196723,-5.957369 8.870878,-6.704329 -0.533451,-1.009622 -1.210784,-1.825326 -1.781842,-2.227409 -1.327228,-0.934509 -4.213239,-0.301506 -5.664147,3.10294 l -1.510602,-0.881263 c 1.260921,-2.958691 3.514376,-4.515546 5.587849,-4.583601 0.138241,-0.0045 0.275906,-0.0025 0.412198,0.0063 0.726853,0.04651 1.421914,0.282159 2.030604,0.710743 1.779284,1.252809 3.590481,4.120287 3.517465,7.432649 -0.02473,1.121218 -0.487627,2.072311 -1.076354,2.849501 -0.588721,0.777201 -1.31946,1.421207 -2.037849,2.002148 -0.718408,0.58096 -1.429345,1.098323 -1.959097,1.552725 -0.508952,0.43657 -0.798254,0.854081 -0.833634,0.931262 0.02379,0.0096 0.06213,0.34655 0.399266,0.828999 0.385367,0.551372 1.034926,1.217882 1.807312,1.817514 1.105949,0.858501 3.327196,1.422942 5.030612,1.633372 -0.110092,-0.554154 -0.198298,-1.119999 -0.254073,-1.701039 -0.585008,-6.095047 0.165646,-11.871026 2.072203,-16.862742 -2.161335,-2.793143 -5.54259,-4.282708 -9.889803,-3.975158 z M 139.4117,73.433363 c -4.41036,0.312017 -7.57643,2.315651 -9.30661,5.463307 2.02822,4.390538 3.18197,9.668092 3.51286,15.853437 l 7.1e-4,0.01013 8e-4,0.01132 c 0.0256,0.815198 3.1e-4,1.599949 -0.0528,2.366967 1.65906,-0.288444 4.59222,-1.355879 5.77721,-2.579275 0.68033,-0.702409 1.22988,-1.454167 1.53379,-2.054287 0.30387,-0.600143 0.24765,-0.956855 0.29062,-0.861962 -0.0215,-0.04756 -0.38003,-0.444328 -0.96849,-0.819628 -0.58843,-0.375302 -1.36551,-0.786971 -2.15856,-1.260991 -0.79302,-0.474031 -1.60716,-1.00914 -2.29945,-1.695715 -0.6923,-0.686575 -1.28409,-1.563035 -1.46641,-2.669611 -0.53862,-3.269125 0.85082,-6.362992 2.43599,-7.853834 0.5423,-0.510023 1.19728,-0.840763 1.91036,-0.989146 2.13922,-0.445158 4.8088,0.751902 6.58472,3.687068 l -1.37192,1.084786 c -1.91574,-3.166293 -4.86213,-3.38666 -6.04458,-2.274586 -0.50876,0.478473 -1.06412,1.381382 -1.45009,2.456057 2.75266,0.363041 6.61693,1.288944 9.72645,5.389042 l -1.25584,1.255015 c -2.81408,-3.710539 -6.27141,-4.447974 -8.89994,-4.766273 -0.0623,0.562768 -0.075,1.133829 0.0162,1.687745 0.0876,0.530951 0.38409,1.028906 0.89782,1.538387 0.51369,0.509475 1.22327,0.992184 1.9682,1.437458 0.74494,0.445274 1.52086,0.85429 2.19815,1.286249 0.67728,0.43196 1.2966,0.828631 1.66436,1.641055 0.43222,0.954817 0.10615,1.882344 -0.32202,2.727846 -0.42814,0.845507 -1.07283,1.700593 -1.85303,2.506112 -1.47991,1.527915 -4.99734,2.91019 -7.1345,3.112656 -0.35654,2.187188 -1.03318,4.154978 -1.95714,5.894928 11.83127,-0.95019 19.70921,-9.943201 19.39761,-16.701998 -0.34431,-7.471239 -4.00058,-15.403515 -11.37435,-14.881847 z m -54.831116,5.817973 c -3.063,0.251501 -5.306905,2.38406 -5.893356,5.085664 -0.312775,1.44086 -0.149483,3.193423 0.03276,4.927366 0.18217,1.733949 0.415557,3.443693 -0.09325,4.984658 -0.508818,1.54095 -1.67354,2.470221 -2.620765,3.29451 -0.947211,0.824295 -1.673089,1.519412 -1.913093,2.478656 -0.251094,1.00358 -0.173563,2.90046 0.481369,4.96554 0.625538,1.97244 1.766934,4.11187 3.474399,5.97363 2.473651,1.76354 5.061566,2.85478 6.864133,3.17223 10.130216,1.78397 28.122389,0.9141 36.825769,-2.78864 0.1778,-0.0757 0.35068,-0.16301 0.52614,-0.24451 2.2217,-1.96716 3.7655,-4.38571 4.68967,-6.6272 1.00995,-2.44957 1.22556,-4.747381 1.00708,-5.638692 -0.21825,-0.890261 -0.94154,-1.377545 -2.01648,-2.021807 -1.07497,-0.644247 -2.47871,-1.389893 -3.10101,-2.988483 -0.62225,-1.598611 -0.35662,-3.476068 -0.15808,-5.417656 0.19852,-1.941578 0.38087,-3.934863 0.0345,-5.452816 -0.69273,-3.035899 -3.39781,-4.959606 -7.67602,-4.656938 -4.2782,0.302669 -10.30122,3.200393 -15.962948,3.361259 -5.661745,0.160869 -10.497681,-2.426309 -13.877438,-2.431771 -0.211241,-3.35e-4 -0.419181,0.0081 -0.62339,0.02498 z m 3.610726,10.69855 c 1.431883,-0.101303 2.695835,0.99564 2.797137,2.427516 0.101303,1.431875 -0.995513,2.697448 -2.427398,2.798749 -1.431886,0.101303 -2.697571,-0.997134 -2.798872,-2.429009 -0.101304,-1.431875 0.997248,-2.695955 2.429133,-2.797256 z m 22.93053,-0.611358 c 1.43187,-0.101293 2.69592,0.996851 2.79721,2.428736 0.10136,1.431875 -0.99563,2.695828 -2.4275,2.797128 -1.43187,0.101303 -2.69706,-0.995543 -2.79836,-2.427417 -0.10125,-1.431885 0.99677,-2.697146 2.42865,-2.798447 z m -11.485153,4.919929 c 0.597353,-0.04226 1.156873,0.03782 1.654833,0.265421 0.49794,0.227594 1.03961,0.68725 1.09102,1.413752 0.0371,0.524055 -0.20162,0.942426 -0.50842,1.248068 1.0427,0.162168 2.04159,0.478381 3.01216,0.784376 1.49877,0.472541 2.93723,0.921404 4.36391,0.931013 2.8534,0.01922 6.35382,-1.774027 9.93249,-3.683344 l 0.91184,1.708113 c -3.57866,1.909308 -7.23401,3.935774 -10.85776,3.911384 -1.81189,-0.0122 -3.44278,-0.55136 -4.93407,-1.02155 -1.4913,-0.470182 -2.83913,-0.864519 -4.07001,-0.798554 -1.230892,0.06598 -2.614359,0.61257 -4.112047,1.227014 -1.497687,0.61443 -3.111179,1.29155 -4.893611,1.41766 -3.564854,0.25222 -7.017881,-1.713436 -10.358607,-3.534707 l 0.926752,-1.700801 c 3.340755,1.821275 6.568136,3.497224 9.295228,3.304276 1.363572,-0.09647 2.799567,-0.663003 4.295109,-1.276548 0.810997,-0.332717 1.640473,-0.677421 2.499103,-0.940562 -0.369693,-0.259186 -0.690612,-0.655241 -0.729577,-1.206011 -0.0514,-0.726502 0.419739,-1.257811 0.880683,-1.553242 0.460949,-0.295432 1.003609,-0.453496 1.600974,-0.495758 z m -2.883157,26.411613 7.65843,-0.12929 0.0755,4.4683 4.52062,-0.0763 0.12931,7.65841 -4.52063,0.0764 0.0715,4.24047 -7.658438,0.1293 -0.0716,-4.24047 -4.188186,0.0708 -0.129302,-7.65843 4.188187,-0.0708 z"
       sodipodi:nodetypes="cccczcccccccccssccscsssssscsscsccscccssscccssssscccccsccccssssscsccccsccccccsscssscssccscccccsssscscccscsscsssscsscssccssssssssssssssssscscssccsscssccsscssccccccccccccccc" /><path
       d="M 100.18172,22.793864 84.08776,24.511099 90.808349,9.7992663 Z m -16.09396,1.717235 -15.355026,5.05826 3.315958,-15.745016 z m -15.355026,5.05826 -13.95011,8.16264 -0.159199,-16.026991 z m -13.95011,8.16264 -11.897172,10.85181 -3.622945,-15.524794 z M 42.885452,48.583809 33.471388,61.726887 26.942736,46.953563 Z M 33.471388,61.726887 26.963689,76.531451 17.456464,63.607435 Z M 26.963689,76.531451 23.660077,92.295137 11.750407,81.322851 Z m -3.303612,15.763686 0.0042,16.160563 -13.907729,-8.12607 z m 0.0042,16.160563 3.314088,15.81513 -15.25006,-4.97613 z m 3.314088,15.81513 6.468695,14.74602 -15.87144,-1.56206 z m 6.468695,14.74602 9.427438,13.13718 -16.09125,1.43485 z m 9.427438,13.13718 11.941229,10.90728 -15.285622,4.87698 z m 11.941229,10.90728 13.902218,8.13486 -14.209859,7.80842 z m 13.902218,8.13486 15.354372,5.05189 -12.131295,10.65755 z m 15.354372,5.05189 16.072353,1.71453 -9.517604,12.98098 z m 16.072353,1.71453 16.07854,-1.70891 -6.45495,14.68241 z m 16.07854,-1.70891 15.30067,-5.04722 -3.54034,15.82261 z m 15.30067,-5.04722 13.95937,-8.16573 0.029,16.10322 z m 13.95937,-8.16573 11.9418,-10.89511 3.50854,15.63086 z m 11.9418,-10.89511 9.37796,-13.08762 6.46336,14.86013 z m 9.37796,-13.08762 6.49984,-14.79651 9.43782,13.09508 z m 6.49984,-14.79651 3.31867,-15.82169 11.95956,10.72582 z m 3.31867,-15.82169 -0.005,-16.158506 13.91448,8.386006 z m -0.005,-16.158506 -3.32522,-15.775472 15.2324,4.86015 z m -3.32522,-15.775472 -6.48207,-14.759199 15.97227,1.789818 z m -6.4823,-14.759199 -9.38076,-13.114642 16.09948,-1.394722 z m -9.38113,-13.114642 -11.97453,-10.926079 15.09958,-5.065743 z m -11.97453,-10.926079 -13.92383,-8.130837 13.86022,-8.014478 z m -13.92383,-8.130837 -15.3119,-5.049281 12.06058,-10.671921 z m -15.3119,-5.049281 -16.03589,-1.73192 9.74182,-12.9411229 z"
       style="display:inline;fill:#debb18;fill-opacity:1;stroke:#debb18;stroke-width:0.935762;stroke-dasharray:none;stroke-opacity:1"
       id="path2" /><g
       id="path9"
       style="display:inline"
       transform="matrix(1.0657886,0,0,1.0657886,-5.4603369,-5.4753308)" /><path
       style="font-weight:bold;font-size:24.6944px;line-height:0;font-family:Arial;-inkscape-font-specification:Arial;letter-spacing:0px;display:inline;fill:#debb18;stroke-width:1.73677"
       d="M 55.889534,72.319053 57.665832,69.7509 q 1.37594,0.796241 2.486772,0.619183 1.1178,-0.185297 2.058585,-1.297654 0.996537,-1.178272 1.003908,-2.189657 0.0061,-1.026592 -0.661315,-1.591062 -0.428463,-0.362377 -0.941123,-0.357822 -0.513931,-0.01067 -1.26603,0.427404 -0.51069,0.303024 -2.178939,1.506801 -2.14471,1.549886 -3.522325,1.74158 -1.937785,0.269133 -3.371489,-0.943433 -0.922843,-0.780503 -1.28306,-1.975575 -0.361487,-1.210278 0.04758,-2.546208 0.41603,-1.344169 1.593754,-2.736674 1.923384,-2.274151 3.889043,-2.576244 1.97263,-0.310333 3.685826,1.039682 l -1.955642,2.529539 q -1.06349,-0.630918 -1.906268,-0.453289 -0.844047,0.162421 -1.715144,1.192381 -0.898973,1.062917 -0.970991,2.033759 -0.04738,0.624205 0.422279,1.021424 0.428463,0.362377 1.039958,0.257675 0.777515,-0.133888 2.702995,-1.558251 1.925478,-1.424363 3.096445,-1.889766 1.169695,-0.480612 2.356655,-0.29648 1.185686,0.168923 2.331002,1.137584 1.038198,0.878066 1.45675,2.22141 0.41855,1.343342 -0.02851,2.774335 -0.455301,1.424023 -1.786338,2.997802 -1.937319,2.290629 -4.030346,2.626338 -2.101266,0.328739 -4.33032,-1.146629 z m 14.378304,-8.258078 -8.451691,-13.373529 9.916117,-6.266705 1.429753,2.262371 -7.215867,4.560224 1.873669,2.964799 6.714133,-4.24314 1.423989,2.253248 -6.714133,4.243142 2.300291,3.639862 7.471297,-4.721648 1.423988,2.253248 z m 26.588141,-10.992244 -3.372173,0.838507 -2.207642,-3.154051 -6.136933,1.525978 -0.400032,3.802462 -3.288391,0.817674 2.162296,-16.839725 3.27792,-0.815071 z m -7.217912,-4.654885 -3.53207,-5.171067 -0.656963,6.212689 z m 9.125054,4.94001 0.964186,-15.661169 3.188243,0.196287 -0.80039,13.000707 7.92752,0.488061 -0.16378,2.660459 z m 22.266169,-4.288939 q 1.1842,-2.107356 2.61811,-3.183141 1.06248,-0.789344 2.34207,-1.171989 1.289,-0.377358 2.48532,-0.237369 1.59551,0.178619 3.27951,1.12493 3.04813,1.712878 3.81063,4.629465 0.77192,2.921874 -1.1207,6.289879 -1.87677,3.33978 -4.7551,4.210431 -2.87305,0.861241 -5.91178,-0.846349 -3.07636,-1.728739 -3.84003,-4.621223 -0.75837,-2.901894 1.09197,-6.194634 z m 2.92225,1.518351 q -1.31638,2.342552 -0.91646,4.164129 0.4052,1.812167 2.07038,2.747906 1.6652,0.93574 3.39969,0.338337 1.74918,-0.601524 3.09727,-3.000521 1.33225,-2.370775 0.94351,-4.124165 -0.37929,-1.748104 -2.10093,-2.715565 -1.72163,-0.967457 -3.44143,-0.374176 -1.71452,0.583873 -3.05203,2.964055 z m 8.40873,14.773057 11.75093,-10.592364 7.26147,8.055716 -1.98786,1.791887 -5.12278,-5.683087 -2.78142,2.507197 4.4219,4.90557 -1.98787,1.791887 -4.42192,-4.905571 -4.99373,4.501394 z"
       id="text17"
       aria-label="SEAL OF" /><path
       style="font-weight:900;font-size:28.2222px;line-height:0;font-family:Arial;-inkscape-font-specification:'Arial Heavy';letter-spacing:7.9375px;display:none;fill:#debb18;stroke-width:1.73677"
       d="m 49.268078,129.74234 q -0.284507,1.244 -0.33666,1.6105 -0.07252,0.54746 -0.101016,1.43612 l -3.486088,-0.27447 q 0.08976,-1.29868 0.394717,-2.6572 0.293511,-1.35393 0.489657,-1.92447 -1.433398,-1.41788 -2.472251,-4.00435 -1.535297,-3.82245 -0.431115,-6.83107 1.30952,-3.55628 5.578321,-5.27083 4.14291,-1.66402 7.346553,-0.30589 3.219684,1.36496 4.865302,5.4621 1.677795,4.17724 0.344817,7.3442 -1.328379,3.17842 -5.505623,4.85621 -3.719464,1.49393 -6.686614,0.55915 z m 1.060069,-5.03767 q 1.358339,0.17213 3.567129,-0.71504 2.540681,-1.02047 3.246382,-2.40705 0.710299,-1.37513 0.04378,-3.03457 -0.620553,-1.54502 -2.116793,-2.06048 -1.496238,-0.51545 -3.853807,0.43146 -2.74668,1.10321 -3.479868,2.48754 -0.733188,1.38432 -0.07586,3.02088 0.211448,0.52646 0.502914,0.95432 0.367436,-0.90515 0.362822,-2.53808 l 2.191821,0.0633 q 0.149911,0.73723 0.118491,1.18846 -0.02683,0.46265 -0.359172,1.88534 -0.07739,0.33677 -0.147833,0.72392 z m 24.186123,10.78951 4.115385,3.76027 -7.270939,7.95762 q -1.081491,1.18362 -2.419809,1.8987 -1.320896,0.71429 -2.836783,0.78264 -1.498463,0.0675 -2.654592,-0.40407 -1.609477,-0.652 -3.293871,-2.19104 -0.974218,-0.89015 -2.005744,-2.08326 -1.022421,-1.18479 -1.430288,-2.29252 -0.39955,-1.11684 -0.363822,-2.45411 0.04483,-1.32894 0.531873,-2.33736 0.782278,-1.62407 1.680746,-2.6074 l 7.270939,-7.95762 4.115385,3.76025 -7.445642,8.14883 q -0.998298,1.09259 -0.963082,2.26078 0.05264,1.1674 1.127011,2.14907 1.065265,0.97333 2.215249,0.92148 1.167407,-0.0525 2.182344,-1.16343 z m 12.345926,22.3562 -6.082543,-1.87134 -1.714579,2.59518 -5.457785,-1.67913 11.811732,-15.28275 5.82321,1.79154 1.178504,19.27928 -5.587453,-1.719 z m 0.02978,-4.08129 0.0017,-6.79973 -3.809073,5.62833 z m 12.455995,-8.90645 5.546729,-0.669 1.63188,13.53006 8.65678,-1.04411 0.53314,4.42022 -14.20351,1.71311 z m 17.642879,-3.59595 5.02144,-2.47726 7.99922,16.21459 -5.02146,2.47724 z m 8.54759,-3.82563 11.75182,-12.26 3.22304,3.08944 -3.94287,4.11339 9.82937,9.42194 -3.86607,4.03324 -9.82937,-9.42195 -3.94287,4.11339 z m 12.19011,-12.45077 2.06327,-5.8504 6.97153,-1.41232 -4.54318,-5.47323 2.05096,-5.81551 7.57152,10.12452 7.14144,2.51859 -1.86227,5.28048 -7.14144,-2.51859 z"
       id="text18"
       aria-label="QUALITY" /></g><text
     xml:space="preserve"
     style="font-size:24.6944px;text-align:start;letter-spacing:3.96875px;writing-mode:lr-tb;direction:ltr;text-anchor:start;display:none;vector-effect:non-scaling-stroke;fill:#debb18;fill-opacity:1;stroke-width:1.22373;-inkscape-stroke:hairline"
     id="text1"
     x="85.803429"
     y="0"><textPath
       xlink:href="#path7"
       id="textPath7"
       style="font-style:normal;font-variant:normal;font-weight:bold;font-stretch:normal;font-size:24.6944px;font-family:sans-serif;-inkscape-font-specification:'sans-serif Bold';text-align:start;letter-spacing:3.96875px;text-anchor:start;fill:#debb18;fill-opacity:1;stroke-width:1.22373">APPROVAL</textPath></text><path
     style="font-weight:bold;font-size:24.6944px;-inkscape-font-specification:'sans-serif Bold';letter-spacing:3.96875px;fill:#debb18;stroke-width:1.22373"
     d="m 43.333369,131.06749 -1.538936,-4.53284 3.037463,-2.34282 -2.139779,-6.30258 -3.836003,-0.009 -1.500171,-4.41865 19.133008,0.50776 1.713374,5.04664 z m 4.255058,-8.99577 5.387678,-4.15945 -6.806444,-0.0194 z m 18.283405,18.29803 q -0.932704,0.76418 -2.095563,1.17135 -1.153531,0.39952 -2.256506,0.28998 -1.5009,-0.15762 -2.761216,-0.83972 -1.252674,-0.67276 -2.498289,-2.19307 l -1.826393,-2.22916 -4.523612,3.70628 -2.934456,-3.58158 13.887955,-11.37866 4.829625,5.89469 q 1.085137,1.32444 1.593217,2.4202 0.525048,1.09746 0.641159,2.17143 0.137468,1.2903 -0.361454,2.43172 -0.49128,1.15074 -1.694467,2.13654 z m -3.117743,-3.63406 q 0.587603,-0.48143 0.747498,-1.14243 0.169222,-0.66865 -0.0068,-1.22591 -0.234659,-0.74303 -0.651589,-1.28995 -0.407602,-0.55457 -1.133574,-1.44064 l -0.504359,-0.61558 -4.159858,3.40824 0.8406,1.02598 q 0.748897,0.91405 1.342256,1.40995 0.601,0.50523 1.265371,0.63118 0.581212,0.10057 1.113871,-0.0864 0.549627,-0.18532 1.146557,-0.6744 z m 18.359288,13.00611 q -0.61351,1.03803 -1.565792,1.81981 -0.946146,0.77141 -2.01965,1.04735 -1.463738,0.36744 -2.881655,0.1597 -1.407536,-0.20162 -3.099531,-1.20164 l -2.4809,-1.46629 -2.975525,5.03447 -3.986049,-2.35588 9.135168,-15.45632 6.560372,3.87738 q 1.474007,0.87119 2.327522,1.7258 0.870031,0.85037 1.347936,1.81914 0.572259,1.1646 0.495706,2.40794 -0.06617,1.24947 -0.857602,2.58854 z m -4.176209,-2.34222 q 0.386511,-0.65396 0.30966,-1.32967 -0.07072,-0.68609 -0.4274,-1.14901 -0.475578,-0.61724 -1.054987,-0.9877 -0.573274,-0.38084 -1.559406,-0.96367 l -0.685102,-0.40492 -2.736256,4.62963 1.141837,0.67486 q 1.017273,0.60124 1.744856,0.86319 0.737962,0.26808 1.405181,0.1582 0.580395,-0.10517 1.016425,-0.46375 0.452545,-0.36282 0.845192,-1.02716 z m 16.955558,4.82796 q 0.116592,-0.6651 -0.07329,-1.18805 -0.189884,-0.52295 -0.807094,-0.91271 -0.42988,-0.27122 -1.041223,-0.41512 -0.60926,-0.15577 -1.428753,-0.29943 l -1.650862,-0.28939 -0.834879,4.76256 1.401452,0.24567 q 1.092657,0.19154 1.84775,0.21374 0.755094,0.0222 1.320539,-0.27042 0.53961,-0.2849 0.830425,-0.68686 0.304773,-0.41176 0.435938,-1.15999 z m 4.963451,13.51575 -5.570175,-0.97645 -3.685176,-7.32997 -2.102177,-0.36852 -1.136768,6.48469 -4.536902,-0.79532 3.100085,-17.68442 7.648599,1.3408 q 1.567726,0.27482 2.664783,0.65076 1.097057,0.37594 1.978724,1.14258 0.893544,0.76873 1.308943,1.82088 0.429358,1.04236 0.17952,2.46756 -0.343529,1.95966 -1.474562,3.03453 -1.119157,1.07694 -2.949307,1.60079 z m 21.382833,-12.84816 q 0.89362,4.19854 -0.98514,7.18728 -1.88128,2.97694 -6.12699,3.88061 -4.23391,0.90115 -7.16444,-1.05165 -2.93304,-1.96458 -3.82666,-6.16312 -0.90115,-4.23391 0.98263,-7.19907 1.88128,-2.97694 6.11519,-3.8781 4.22212,-0.89864 7.16445,1.05165 2.93981,1.93849 3.84096,6.1724 z m -5.05662,5.72388 q 0.48975,-0.94253 0.57724,-2.09532 0.085,-1.16459 -0.22879,-2.63879 -0.33636,-1.58035 -0.93792,-2.61114 -0.60156,-1.03078 -1.33683,-1.5893 -0.75209,-0.5796 -1.61004,-0.72985 -0.84615,-0.15276 -1.69529,0.028 -0.86094,0.18324 -1.56226,0.65304 -0.68953,0.46728 -1.17578,1.31045 -0.44911,0.78595 -0.578,2.03385 -0.1196,1.23359 0.20672,2.76676 0.33385,1.56856 0.92362,2.60185 0.59905,1.01899 1.33683,1.58931 0.73778,0.57032 1.59824,0.73236 0.86046,0.16204 1.73319,-0.0237 0.87273,-0.18575 1.59262,-0.68415 0.71738,-0.5102 1.15645,-1.34333 z m 17.37361,-24.26729 4.53586,18.56457 -4.31026,2.88173 -15.4218,-11.28653 4.03963,-2.70078 10.61857,8.07236 -3.40138,-12.89758 z m 24.13409,-3.52369 -2.76706,3.90618 -3.67952,-1.08451 -3.8474,5.43127 2.24371,3.11139 -2.69736,3.8078 -10.81719,-15.78982 3.08071,-4.34895 z m -9.7809,1.83393 -6.52966,-1.92136 3.97867,5.52253 z m 15.61609,-20.57544 -3.52889,12.46001 -17.27463,-4.89247 1.26173,-4.45497 13.93339,3.94617 2.26717,-8.00503 z"
     id="text1-8"
     inkscape:label="text to image"
     transform="translate(5.7200139e-5,-5.4938778e-5)"
     aria-label="APPROVAL" /><circle
     style="display:none;vector-effect:non-scaling-stroke;fill:none;fill-opacity:1;stroke:#ff0000;stroke-width:0.29404;stroke-opacity:1;-inkscape-stroke:hairline"
     id="path7"
     cx="-80.659584"
     cy="117.87202"
     r="62.947586"
     transform="matrix(-0.98472563,0.17411326,0.17411326,0.98472563,0,0)" /><g
     id="g7"
     style="display:none"><path
       d="M 308.95719,7.575699 A 95.685195,96.556275 0 1 0 404.6424,104.13197 95.685195,96.556275 0 0 0 308.95719,7.575699 Z"
       style="display:inline;fill:#bfc4d2;fill-opacity:0.261062;stroke:none;stroke-width:5.94837;stroke-dasharray:none;stroke-opacity:1"
       id="circle_sticker-4" /><path
       d="M 308.95723,28.215542 A 75.231218,75.916091 0 1 0 384.18846,104.13164 75.231218,75.916091 0 0 0 308.95723,28.215542 Z"
       style="display:inline;fill:none;stroke:#debb18;stroke-width:4.67682;stroke-dasharray:none;stroke-opacity:1"
       id="path1-8" /><path
       id="path1-5-9-5"
       style="color:#000000;display:inline;fill:#debb18;stroke-width:0.784609;-inkscape-stroke:none"
       d="m 330.05835,137.37917 c -2.65408,-10.10946 -6.15326,-16.78384 -6.80061,-18.21495 -8.6392,1.84489 -18.81885,2.02555 -27.00908,1.03439 -0.35323,1.69416 -3.91527,8.06781 -6.02225,18.36628 6.17654,3.41103 12.26088,6.03501 19.33184,5.74599 7.07096,-0.28903 14.4061,-2.49758 20.5001,-6.93171 z m -26.5459,-76.879548 c -0.38625,1.6272 0.81971,5.78895 0.92676,7.77934 l -3.6838,-2.28024 c -0.14905,1.00878 -0.27872,2.41048 -0.18073,4.1905 l 0.0512,0.91785 -0.91419,0.0972 c -6.97678,0.74482 -12.44643,4.44701 -16.04777,10.00452 -3.60133,5.55752 -5.29551,12.98897 -4.51831,21.086288 0.24367,2.53863 1.11117,4.78661 2.32815,6.7494 -0.66314,-2.21397 -0.81963,-4.2309 -0.44126,-5.74315 0.40549,-1.62085 1.55291,-2.62604 2.52029,-3.467868 0.9674,-0.84183 1.75704,-1.54358 2.05418,-2.44352 0.2972,-0.89993 0.18771,-2.44046 0.005,-4.17485 -0.18229,-1.73438 -0.4053,-3.66813 0.001,-5.54028 0.81279,-3.74431 4.16135,-6.64206 8.41076,-6.6352 4.2495,0.007 8.81207,2.57453 13.81854,2.43228 5.00655,-0.14225 10.9223,-3.00628 15.88236,-3.35718 4.96009,-0.35091 8.79232,2.17974 9.69987,6.15712 0.45378,1.98869 0.20152,4.14241 0.004,6.08057 -0.19816,1.93818 -0.29161,3.67471 0.0367,4.51818 0.32835,0.84348 1.18513,1.36811 2.29149,2.0312 1.10645,0.6631 2.48577,1.519958 2.90237,3.219608 0.4164,1.69856 0.0222,4.1259 -1.0965,6.83964 -0.18478,0.44817 -0.39811,0.90212 -0.62784,1.35814 2.29996,-2.8706 3.71942,-6.75465 3.56686,-11.725428 -0.50308,-9.38258 -2.91863,-16.35235 -7.28859,-21.23139 -4.37118,-4.88044 -10.75663,-7.75542 -19.47883,-8.76097 l -0.14097,-0.0164 -0.13174,-0.0578 c -4.97056,-2.15183 -8.44376,-6.1744 -9.94943,-8.02753 z m -34.11187,21.1435 c -7.3737,0.52166 -9.87681,8.89011 -9.16586,16.3354 0.62943,6.591518 9.33075,14.181728 20.80611,13.824378 -1.27348,-1.63559 -2.3486,-3.5006 -3.0409,-5.60308 -2.15005,-0.14517 -5.04128,-0.93873 -6.47858,-2.05448 -0.88585,-0.68766 -1.64489,-1.44344 -2.1878,-2.22024 -0.5429,-0.7768 -0.99635,-1.64919 -0.70285,-2.655348 0.2497,-0.85609 0.80701,-1.33603 1.41673,-1.85904 0.60971,-0.523 1.32074,-1.03721 1.99556,-1.58293 0.67483,-0.54571 1.30896,-1.12349 1.74583,-1.70021 0.43687,-0.57672 0.66079,-1.11152 0.67267,-1.64949 0.0123,-0.56125 -0.0812,-1.1248 -0.22162,-1.67321 -2.55751,0.68518 -5.87701,1.90209 -8.14065,5.97182 l -1.41962,-1.06614 c 2.50122,-4.49699 6.19672,-5.95736 8.87087,-6.70432 -0.53345,-1.00963 -1.21078,-1.82533 -1.78184,-2.22741 -1.32723,-0.93451 -4.21324,-0.30151 -5.66415,3.10294 l -1.5106,-0.88127 c 1.26092,-2.95869 3.51438,-4.51554 5.58785,-4.5836 0.13824,-0.005 0.27591,-0.002 0.4122,0.006 0.72685,0.0465 1.42191,0.28216 2.0306,0.71075 1.77929,1.2528 3.59048,4.12028 3.51747,7.43264 -0.0247,1.12122 -0.48763,2.07232 -1.07636,2.84951 -0.58872,0.7772 -1.31946,1.4212 -2.03784,2.00214 -0.71841,0.58096 -1.42935,1.09833 -1.9591,1.55273 -0.50895,0.43657 -0.79826,0.85408 -0.83364,0.93126 0.0238,0.01 0.0621,0.346548 0.39927,0.828998 0.38537,0.55137 1.03493,1.21788 1.80731,1.81751 1.10595,0.8585 3.3272,1.42295 5.03061,1.63338 -0.11009,-0.55416 -0.19829,-1.12 -0.25407,-1.70104 -0.58501,-6.095048 0.16565,-11.871028 2.0722,-16.862748 -2.16133,-2.79314 -5.54259,-4.2827 -9.8898,-3.97515 z m 78.82844,-4.46107 c -4.41036,0.31202 -7.57643,2.31565 -9.30661,5.46331 2.02822,4.39053 3.18197,9.66809 3.51286,15.85343 l 7.1e-4,0.0101 8e-4,0.0113 c 0.0256,0.8152 3.1e-4,1.599948 -0.0528,2.366968 1.65906,-0.28844 4.59222,-1.355878 5.77721,-2.579268 0.68033,-0.70241 1.22988,-1.45417 1.53379,-2.05429 0.30387,-0.60014 0.24765,-0.95686 0.29062,-0.86196 -0.0215,-0.0476 -0.38003,-0.44433 -0.96849,-0.81963 -0.58843,-0.3753 -1.36551,-0.78697 -2.15856,-1.26099 -0.79302,-0.47403 -1.60716,-1.00914 -2.29945,-1.69572 -0.6923,-0.68657 -1.28409,-1.56303 -1.46641,-2.66961 -0.53862,-3.26912 0.85082,-6.36299 2.43599,-7.85383 0.5423,-0.51003 1.19728,-0.84077 1.91036,-0.98915 2.13922,-0.44516 4.8088,0.7519 6.58472,3.68707 l -1.37192,1.08478 c -1.91574,-3.16629 -4.86213,-3.38666 -6.04458,-2.27458 -0.50876,0.47847 -1.06412,1.38138 -1.45009,2.45606 2.75266,0.36304 6.61693,1.28894 9.72645,5.38904 l -1.25584,1.25501 c -2.81408,-3.71054 -6.27141,-4.44797 -8.89994,-4.76627 -0.0623,0.56277 -0.075,1.13383 0.0162,1.68774 0.0876,0.53096 0.38409,1.02891 0.89782,1.53839 0.51369,0.50948 1.22327,0.99219 1.9682,1.43746 0.74494,0.44527 1.52086,0.85429 2.19815,1.28625 0.67728,0.43196 1.2966,0.82863 1.66436,1.64105 0.43222,0.95482 0.10615,1.88235 -0.32202,2.72785 -0.42814,0.84551 -1.07283,1.70059 -1.85303,2.50611 -1.47991,1.527918 -4.99734,2.910188 -7.1345,3.112658 -0.35654,2.18719 -1.03318,4.15498 -1.95714,5.89493 11.83127,-0.95019 19.70921,-9.943208 19.39761,-16.701998 -0.34431,-7.47124 -4.00058,-15.40352 -11.37435,-14.88185 z m -54.83112,5.81797 c -3.063,0.2515 -5.3069,2.38406 -5.89335,5.08567 -0.31278,1.44086 -0.14949,3.19342 0.0328,4.92736 0.18217,1.73395 0.41555,3.44369 -0.0933,4.98466 -0.50882,1.54095 -1.67354,2.470218 -2.62077,3.294508 -0.94721,0.8243 -1.67309,1.51941 -1.91309,2.47866 -0.25109,1.00358 -0.17356,2.90046 0.48137,4.96554 0.62554,1.97244 1.76693,4.11187 3.4744,5.97363 2.47365,1.76354 5.06156,2.85478 6.86413,3.17223 10.13022,1.78397 28.12239,0.9141 36.82577,-2.78864 0.1778,-0.0757 0.35068,-0.16301 0.52614,-0.24451 2.2217,-1.96716 3.7655,-4.38571 4.68967,-6.6272 1.00995,-2.44957 1.22556,-4.74739 1.00708,-5.6387 -0.21825,-0.89026 -0.94154,-1.37754 -2.01648,-2.0218 -1.07497,-0.644248 -2.47871,-1.389898 -3.10101,-2.988488 -0.62225,-1.59861 -0.35662,-3.47606 -0.15808,-5.41765 0.19852,-1.94158 0.38087,-3.93487 0.0345,-5.45282 -0.69273,-3.0359 -3.39781,-4.9596 -7.67602,-4.65694 -4.2782,0.30267 -10.30122,3.2004 -15.96295,3.36126 -5.66174,0.16087 -10.49768,-2.42631 -13.87744,-2.43177 -0.21124,-3.3e-4 -0.41918,0.008 -0.62339,0.025 z m 3.61073,10.69855 c 1.43188,-0.1013 2.69583,0.99564 2.79714,2.42752 0.1013,1.43187 -0.99552,2.69745 -2.4274,2.79875 -1.43189,0.1013 -2.69757,-0.99714 -2.79887,-2.42901 -0.10131,-1.43188 0.99724,-2.69596 2.42913,-2.79726 z m 22.93053,-0.61136 c 1.43187,-0.10129 2.69592,0.99685 2.79721,2.42874 0.10136,1.43187 -0.99563,2.69583 -2.4275,2.79713 -1.43187,0.1013 -2.69706,-0.99555 -2.79836,-2.42742 -0.10125,-1.43188 0.99677,-2.69715 2.42865,-2.79845 z m -11.48515,4.91993 c 0.59735,-0.0423 1.15687,0.0378 1.65483,0.26542 0.49794,0.2276 1.03961,0.68725 1.09102,1.41376 0.0371,0.524048 -0.20162,0.942418 -0.50842,1.248058 1.0427,0.16217 2.04159,0.47838 3.01216,0.78438 1.49877,0.47254 2.93723,0.9214 4.36391,0.93101 2.8534,0.0192 6.35382,-1.77402 9.93249,-3.683338 l 0.91184,1.708108 c -3.57866,1.90931 -7.23401,3.93578 -10.85776,3.91139 -1.81189,-0.0122 -3.44278,-0.55136 -4.93407,-1.02155 -1.4913,-0.47019 -2.83913,-0.86452 -4.07001,-0.79856 -1.23089,0.066 -2.61436,0.61257 -4.11205,1.22702 -1.49768,0.61443 -3.11118,1.29155 -4.89361,1.41766 -3.56485,0.25222 -7.01788,-1.71344 -10.35861,-3.53471 l 0.92676,-1.7008 c 3.34075,1.82127 6.56813,3.49722 9.29522,3.30427 1.36358,-0.0965 2.79957,-0.663 4.29511,-1.27654 0.811,-0.33272 1.64048,-0.67743 2.49911,-0.94057 -0.3697,-0.25918 -0.69062,-0.65524 -0.72958,-1.20601 -0.0514,-0.726498 0.41974,-1.257808 0.88068,-1.553238 0.46095,-0.29543 1.00361,-0.4535 1.60098,-0.49576 z m -2.88316,26.411618 7.65843,-0.12929 0.0755,4.4683 4.52062,-0.0763 0.12931,7.65841 -4.52063,0.0764 0.0715,4.24047 -7.65844,0.1293 -0.0716,-4.24047 -4.18818,0.0708 -0.12931,-7.65843 4.18819,-0.0708 z"
       sodipodi:nodetypes="cccczcccccccccssccscsssssscsscsccscccssscccssssscccccsccccssssscsccccsccccccsscssscssccscccccsssscscccscsscsssscsscssccssssssssssssssssscscssccsscssccsscssccccccccccccccc" /><path
       d="m 308.99904,26.542552 -16.09396,1.71724 6.72059,-14.711838 z m -16.09396,1.71724 -15.35503,5.05826 3.31596,-15.745021 z m -15.35503,5.05826 -13.95011,8.16264 -0.1592,-16.027 z m -13.95011,8.16264 -11.89717,10.85181 -3.62294,-15.5248 z m -11.89717,10.85181 -9.41406,13.14307 -6.52865,-14.77332 z m -9.41406,13.14307 -6.5077,14.80457 -9.50723,-12.92402 z m -6.5077,14.80457 -3.30361,15.76368 -11.90967,-10.97228 z m -3.30361,15.76368 0.004,16.160568 -13.90773,-8.12607 z m 0.004,16.160568 3.31408,15.81513 -15.25006,-4.97613 z m 3.31408,15.81513 6.4687,14.74602 -15.87144,-1.56206 z m 6.4687,14.74602 9.42744,13.13718 -16.09125,1.43485 z m 9.42744,13.13718 11.94123,10.90728 -15.28563,4.87698 z m 11.94123,10.90728 13.90221,8.13486 -14.20985,7.80842 z m 13.90221,8.13486 15.35438,5.05189 -12.1313,10.65755 z m 15.35438,5.05189 16.07235,1.71453 -9.5176,12.98098 z m 16.07235,1.71453 16.07854,-1.70891 -6.45495,14.68241 z m 16.07854,-1.70891 15.30067,-5.04722 -3.54034,15.82261 z m 15.30067,-5.04722 13.95937,-8.16573 0.029,16.10322 z m 13.95937,-8.16573 11.9418,-10.89511 3.50854,15.63086 z m 11.9418,-10.89511 9.37796,-13.08762 6.46336,14.86013 z m 9.37796,-13.08762 6.49984,-14.79651 9.43782,13.09508 z m 6.49984,-14.79651 3.31867,-15.82169 11.95956,10.72582 z m 3.31867,-15.82169 -0.005,-16.158508 13.91448,8.386008 z m -0.005,-16.158508 -3.32522,-15.77547 15.2324,4.86015 z m -3.32522,-15.77547 -6.48207,-14.7592 15.97227,1.78982 z m -6.4823,-14.7592 -9.38076,-13.11464 16.09948,-1.39472 z m -9.38113,-13.11464 -11.97453,-10.92608 15.09958,-5.06574 z m -11.97453,-10.92608 -13.92383,-8.13084 13.86022,-8.01448 z m -13.92383,-8.13084 -15.3119,-5.04928 12.06058,-10.671921 z m -15.3119,-5.04928 -16.03589,-1.73192 9.74182,-12.941123 z"
       style="display:inline;fill:#debb18;fill-opacity:1;stroke:#debb18;stroke-width:0.935762;stroke-dasharray:none;stroke-opacity:1"
       id="path2-5" /><path
       style="font-weight:bold;font-size:24.6944px;line-height:0;font-family:Arial;-inkscape-font-specification:Arial;letter-spacing:0px;display:inline;fill:#debb18;stroke-width:1.73677"
       d="m 264.70685,76.067742 1.7763,-2.56815 q 1.37594,0.79624 2.48677,0.61918 1.1178,-0.1853 2.05859,-1.29765 0.99654,-1.17828 1.00391,-2.18966 0.006,-1.02659 -0.66132,-1.59106 -0.42846,-0.36238 -0.94112,-0.35783 -0.51393,-0.0107 -1.26603,0.42741 -0.51069,0.30302 -2.17894,1.5068 -2.14471,1.54989 -3.52233,1.74158 -1.93778,0.26913 -3.37148,-0.94343 -0.92285,-0.78051 -1.28306,-1.97558 -0.36149,-1.21028 0.0476,-2.54621 0.41603,-1.34417 1.59375,-2.73667 1.92338,-2.27415 3.88904,-2.57625 1.97263,-0.31033 3.68583,1.03969 l -1.95564,2.52954 q -1.06349,-0.63092 -1.90627,-0.45329 -0.84405,0.16242 -1.71515,1.19238 -0.89897,1.06291 -0.97099,2.03376 -0.0474,0.6242 0.42228,1.02142 0.42847,0.36238 1.03996,0.25768 0.77752,-0.13389 2.703,-1.55825 1.92547,-1.42437 3.09644,-1.88977 1.1697,-0.48061 2.35666,-0.29648 1.18568,0.16892 2.331,1.13758 1.0382,0.87807 1.45675,2.22141 0.41855,1.34335 -0.0285,2.77434 -0.4553,1.42402 -1.78634,2.9978 -1.93732,2.29063 -4.03035,2.62634 -2.10126,0.32874 -4.33032,-1.14663 z m 14.37831,-8.25808 -8.45169,-13.37353 9.91611,-6.2667 1.42976,2.26237 -7.21587,4.56022 1.87367,2.9648 6.71413,-4.24314 1.42399,2.25325 -6.71413,4.24314 2.30029,3.63986 7.4713,-4.72165 1.42398,2.25325 z m 26.58814,-10.99224 -3.37217,0.8385 -2.20765,-3.15405 -6.13693,1.52598 -0.40003,3.80246 -3.28839,0.81768 2.16229,-16.83973 3.27792,-0.81507 z m -7.21791,-4.65489 -3.53207,-5.17106 -0.65697,6.21268 z m 9.12505,4.94001 0.96419,-15.66117 3.18824,0.19629 -0.80039,13.00071 7.92752,0.48806 -0.16378,2.66046 z m 22.26617,-4.28894 q 1.1842,-2.10735 2.61811,-3.18314 1.06248,-0.78934 2.34207,-1.17199 1.289,-0.37735 2.48532,-0.23737 1.59551,0.17862 3.27951,1.12493 3.04813,1.71288 3.81063,4.62947 0.77192,2.92187 -1.1207,6.28988 -1.87677,3.33978 -4.7551,4.21043 -2.87305,0.86124 -5.91178,-0.84635 -3.07636,-1.72874 -3.84003,-4.62122 -0.75837,-2.9019 1.09197,-6.19464 z m 2.92225,1.51835 q -1.31638,2.34256 -0.91646,4.16413 0.4052,1.81217 2.07038,2.74791 1.6652,0.93574 3.39969,0.33834 1.74918,-0.60153 3.09727,-3.00053 1.33225,-2.37077 0.94351,-4.12416 -0.37929,-1.7481 -2.10093,-2.71556 -1.72163,-0.96746 -3.44143,-0.37418 -1.71452,0.58387 -3.05203,2.96405 z m 8.40873,14.77306 11.75093,-10.59236 7.26147,8.05571 -1.98786,1.79189 -5.12278,-5.68309 -2.78142,2.5072 4.4219,4.90557 -1.98787,1.79189 -4.42192,-4.90557 -4.99373,4.50139 z"
       id="text17-5"
       aria-label="SEAL OF" /><path
       style="font-weight:900;font-size:28.2222px;line-height:0;font-family:Arial;-inkscape-font-specification:'Arial Heavy';letter-spacing:7.9375px;display:inline;fill:#debb18;stroke-width:1.73677"
       d="m 258.0854,133.49103 q -0.28451,1.244 -0.33666,1.6105 -0.0725,0.54746 -0.10102,1.43612 l -3.48609,-0.27447 q 0.0898,-1.29868 0.39472,-2.6572 0.29351,-1.35393 0.48966,-1.92447 -1.4334,-1.41788 -2.47225,-4.00435 -1.5353,-3.82245 -0.43112,-6.83107 1.30952,-3.55628 5.57832,-5.27083 4.14291,-1.66402 7.34656,-0.30589 3.21968,1.36496 4.8653,5.4621 1.67779,4.17724 0.34481,7.3442 -1.32837,3.17842 -5.50562,4.85621 -3.71946,1.49393 -6.68661,0.55915 z m 1.06007,-5.03767 q 1.35834,0.17213 3.56713,-0.71504 2.54068,-1.02047 3.24638,-2.40705 0.7103,-1.37513 0.0438,-3.03457 -0.62056,-1.54502 -2.1168,-2.06048 -1.49623,-0.51545 -3.8538,0.43146 -2.74668,1.10321 -3.47987,2.48754 -0.73319,1.38432 -0.0759,3.02088 0.21145,0.52646 0.50291,0.95432 0.36744,-0.90515 0.36283,-2.53808 l 2.19182,0.0633 q 0.14991,0.73723 0.11849,1.18846 -0.0268,0.46265 -0.35917,1.88534 -0.0774,0.33677 -0.14784,0.72392 z m 24.18612,10.78951 4.11538,3.76027 -7.27093,7.95762 q -1.0815,1.18362 -2.41981,1.8987 -1.3209,0.71429 -2.83679,0.78264 -1.49846,0.0675 -2.65459,-0.40407 -1.60948,-0.652 -3.29387,-2.19104 -0.97422,-0.89015 -2.00574,-2.08326 -1.02242,-1.18479 -1.43029,-2.29252 -0.39955,-1.11684 -0.36382,-2.45411 0.0448,-1.32894 0.53187,-2.33736 0.78228,-1.62407 1.68075,-2.6074 l 7.27093,-7.95762 4.11539,3.76025 -7.44564,8.14883 q -0.9983,1.09259 -0.96308,2.26078 0.0526,1.1674 1.12701,2.14907 1.06526,0.97333 2.21525,0.92148 1.1674,-0.0525 2.18234,-1.16343 z m 12.34593,22.3562 -6.08255,-1.87134 -1.71458,2.59518 -5.45778,-1.67913 11.81173,-15.28275 5.82321,1.79154 1.1785,19.27928 -5.58745,-1.719 z m 0.0298,-4.08129 0.002,-6.79973 -3.80908,5.62833 z m 12.45599,-8.90645 5.54673,-0.669 1.63188,13.53006 8.65678,-1.04411 0.53314,4.42022 -14.20351,1.71311 z m 17.64288,-3.59595 5.02144,-2.47726 7.99922,16.21459 -5.02146,2.47724 z m 8.54759,-3.82563 11.75182,-12.26 3.22304,3.08944 -3.94287,4.11339 9.82937,9.42194 -3.86607,4.03324 -9.82937,-9.42195 -3.94287,4.11339 z m 12.19011,-12.45077 2.06327,-5.8504 6.97153,-1.41232 -4.54318,-5.47323 2.05096,-5.81551 7.57152,10.12452 7.14144,2.51859 -1.86227,5.28048 -7.14144,-2.51859 z"
       id="text18-4"
       aria-label="QUALITY" /><circle
       style="display:none;vector-effect:non-scaling-stroke;fill:none;fill-opacity:1;stroke:#ff0000;stroke-width:0.290971;stroke-opacity:1;-inkscape-stroke:hairline"
       id="path7-2"
       cx="-279.83105"
       cy="166.63885"
       r="62.290524"
       transform="matrix(-0.97736057,0.21158052,0.21158052,0.97736057,0,0)" /></g></svg>
